<svg width="25" height="31" viewBox="0 0 25 31" fill="none" xmlns="http://www.w3.org/2000/svg">
<path d="M23.5238 7.47707C22.9069 6.01948 22.0242 4.70993 20.9002 3.58568C19.7759 2.46144 18.4664 1.57894 17.0088 0.962091C15.4988 0.323734 13.8956 0 12.2428 0C10.5905 0 8.98705 0.323747 7.47707 0.962091C6.01897 1.57894 4.70993 2.46169 3.58568 3.58568C2.46144 4.70993 1.57894 6.01948 0.962091 7.47707C0.323734 8.98705 0 10.5902 0 12.243C0 14.5629 0.635131 16.9932 1.88761 19.4655C2.87988 21.4241 4.26036 23.4153 5.99101 25.3837C8.92745 28.7227 11.8182 30.8149 11.94 30.9024C12.0307 30.9674 12.1365 31 12.2427 31C12.349 31 12.4553 30.9674 12.5457 30.9024C12.6676 30.8149 15.5583 28.7227 18.4947 25.3837C20.2254 23.4153 21.6059 21.4241 22.5981 19.4655C23.8506 16.9927 24.4857 14.5626 24.4857 12.243C24.4857 10.5905 24.162 8.98705 23.5236 7.47707H23.5238ZM12.2427 16.9537C9.64533 16.9537 7.53211 14.8405 7.53211 12.2431C7.53211 9.64546 9.64533 7.53224 12.2427 7.53224C14.8404 7.53224 16.9536 9.64546 16.9536 12.2431C16.9536 14.8405 14.8404 16.9537 12.2427 16.9537Z" fill="white"/>
</svg>
