<svg width="31" height="33" viewBox="0 0 31 33" fill="none" xmlns="http://www.w3.org/2000/svg">
<path d="M26.3223 23.5804L19.4931 21.2766C18.6429 20.9932 17.7012 21.2309 17.0887 21.8891C16.2842 22.7668 14.9403 22.8673 14.0078 22.136L13.6695 21.8708C11.4845 20.1521 9.61045 18.0677 8.13851 15.709C7.48027 14.6576 7.78196 13.2863 8.81503 12.6006L8.91559 12.5366C9.8938 11.8967 10.3966 10.7356 10.1955 9.5745L9.27209 4.18064C9.15324 3.50411 8.80584 2.89158 8.28477 2.44365C7.54426 1.81284 6.54778 1.57511 5.60611 1.83113L5.4964 1.85855C3.29317 2.44365 1.48296 4.02526 0.623614 6.14624C0.312776 6.90504 0.139077 7.70954 0.093364 8.52325L0.0202267 10.0408C-0.0711992 11.8602 0.148213 13.6794 0.660175 15.4256L1.07157 16.8243C1.19042 17.2357 1.35498 17.638 1.54697 18.0219L1.66582 18.2596C3.1834 21.2948 5.3318 23.9734 7.96474 26.1127C10.296 28.0143 12.8741 29.5867 15.6259 30.7935L15.8178 30.8758C17.2532 31.5066 18.7982 31.8631 20.3707 31.9454L21.4586 32.0003C23.3145 32.0917 25.0972 31.2872 26.2491 29.8336C26.6605 29.3216 26.9713 28.7365 27.1816 28.1149L27.7392 26.4693C28.1598 25.2808 27.5198 23.9826 26.3222 23.5804L26.3223 23.5804Z" fill="white"/>
<path d="M30.9847 15.3154C29.6408 8.20279 24.5395 2.34294 17.6645 0.0384807C17.2805 -0.0895055 16.8691 0.111618 16.7411 0.495593C16.6131 0.879569 16.8143 1.29096 17.1983 1.41896C23.5703 3.55825 28.3059 8.98864 29.5497 15.58C29.6137 15.9274 29.9245 16.1743 30.2719 16.1743C30.3176 16.1743 30.3633 16.1743 30.4091 16.1651C30.8022 16.092 31.0673 15.708 30.985 15.3149L30.9847 15.3154Z" fill="white"/>
<path d="M15.3876 9.66595C18.3405 10.9641 20.5347 13.5971 21.2569 16.7237C21.3392 17.062 21.6318 17.2906 21.97 17.2906C22.0249 17.2906 22.0797 17.2814 22.1346 17.2723C22.5277 17.1808 22.7745 16.7877 22.6831 16.3946C21.8603 12.82 19.3554 9.80315 15.9819 8.3221C15.6162 8.15754 15.1774 8.33124 15.022 8.69693C14.8574 9.07176 15.022 9.51059 15.3877 9.66602L15.3876 9.66595Z" fill="white"/>
<path d="M16.2561 5.75328C18.4776 6.58521 20.4706 7.97481 22.0248 9.77583C23.6064 11.6043 24.6944 13.8258 25.1788 16.1845C25.252 16.5319 25.5537 16.7696 25.8919 16.7696C25.9376 16.7696 25.9925 16.7605 26.0382 16.7513C26.4313 16.669 26.6873 16.2851 26.605 15.892C26.0748 13.2864 24.868 10.8364 23.1218 8.81596C21.4031 6.83214 19.209 5.29625 16.7589 4.38199C16.384 4.24486 15.9635 4.4277 15.8172 4.81167C15.6709 5.19564 15.8812 5.61618 16.256 5.75335L16.2561 5.75328Z" fill="white"/>
</svg>
