<svg width="27" height="18" viewBox="0 0 27 18" fill="none" xmlns="http://www.w3.org/2000/svg">
<path d="M2.07679 0C1.80105 0 1.5381 0.0548116 1.29782 0.151394L12.8835 10.4712C13.2873 10.8312 13.7354 10.831 14.1384 10.4712L25.7019 0.151394C25.4617 0.0548104 25.1987 0 24.9229 0H2.07661H2.07679ZM0.0214899 1.78487C0.00845093 1.87952 0 1.97852 0 2.07704V15.9233C0 16.2073 0.059882 16.4777 0.162261 16.7237L8.156 9.04337L0.0214899 1.78487ZM26.9784 1.78487L18.8654 9.03252L26.8486 16.7129C26.9476 16.47 27 16.2024 27 15.9233V2.07706C27 1.97879 26.9913 1.87955 26.9785 1.78489L26.9784 1.78487ZM17.3077 10.4277L15.5228 12.0285C14.3882 13.0417 12.6333 13.04 11.4986 12.0285L9.71374 10.4382L1.83869 17.9888C1.91571 17.9974 1.99733 17.9994 2.07677 17.9994H24.9231C24.9987 17.9994 25.0769 17.996 25.1503 17.9888L17.3074 10.4277L17.3077 10.4277Z" fill="white"/>
</svg>
