<svg width="426" height="516" viewBox="0 0 426 516" fill="none" xmlns="http://www.w3.org/2000/svg">
<path d="M303.708 258.298C303.708 332.965 243.311 393.493 168.81 393.493C94.3087 393.493 33.9118 332.965 33.9118 258.298C33.9118 183.63 94.3087 123.102 168.81 123.102C243.311 123.102 303.708 183.63 303.708 258.298Z" stroke="white" stroke-opacity="0.1"/>
<path d="M364.413 258.298C364.413 366.492 276.838 454.199 168.81 454.199C60.7813 454.199 -26.7942 366.492 -26.7942 258.298C-26.7942 150.104 60.7813 62.3962 168.81 62.3962C276.838 62.3962 364.413 150.104 364.413 258.298Z" stroke="white" stroke-opacity="0.1"/>
<path d="M425.119 258C425.119 400.216 310.363 515.5 168.81 515.5C27.256 515.5 -87.5 400.216 -87.5 258C-87.5 115.784 27.256 0.5 168.81 0.5C310.363 0.5 425.119 115.784 425.119 258Z" stroke="white" stroke-opacity="0.1"/>
</svg>
