<svg width="724" height="867" viewBox="0 0 724 867" fill="none" xmlns="http://www.w3.org/2000/svg">
<path d="M519.5 434C519.5 559.646 417.868 661.5 292.5 661.5C167.132 661.5 65.5 559.646 65.5 434C65.5 308.354 167.132 206.5 292.5 206.5C417.868 206.5 519.5 308.354 519.5 434Z" stroke="white" stroke-opacity="0.1"/>
<path d="M621.5 434C621.5 615.979 474.201 763.5 292.5 763.5C110.799 763.5 -36.5 615.979 -36.5 434C-36.5 252.021 110.799 104.5 292.5 104.5C474.201 104.5 621.5 252.021 621.5 434Z" stroke="white" stroke-opacity="0.1"/>
<path d="M723.5 433.5C723.5 672.641 530.533 866.5 292.5 866.5C54.4675 866.5 -138.5 672.641 -138.5 433.5C-138.5 194.359 54.4675 0.5 292.5 0.5C530.533 0.5 723.5 194.359 723.5 433.5Z" stroke="white" stroke-opacity="0.1"/>
</svg>
