<svg width="30" height="30" viewBox="0 0 30 30" fill="none" xmlns="http://www.w3.org/2000/svg">
<path d="M13.4395 21.0755V23.613C13.4395 25.763 11.4395 27.5005 8.97698 27.5005C6.51448 27.5005 4.50195 25.763 4.50195 23.613V21.0755C4.50195 23.2255 6.50198 24.7505 8.97698 24.7505C11.4395 24.7505 13.4395 23.213 13.4395 21.0755Z" stroke="white" stroke-width="1.5" stroke-linecap="round" stroke-linejoin="round"/>
<path d="M13.4376 17.6375C13.4376 18.2625 13.2626 18.8375 12.9626 19.3375C12.2251 20.55 10.7125 21.3125 8.96255 21.3125C7.21255 21.3125 5.70003 20.5375 4.96253 19.3375C4.66253 18.8375 4.48761 18.2625 4.48761 17.6375C4.48761 16.5625 4.98759 15.6 5.78759 14.9C6.60009 14.1875 7.71253 13.7625 8.95003 13.7625C10.1875 13.7625 11.3001 14.2 12.1126 14.9C12.9376 15.5875 13.4376 16.5625 13.4376 17.6375Z" stroke="white" stroke-width="1.5" stroke-linecap="round" stroke-linejoin="round"/>
<path d="M13.4395 17.6375V21.075C13.4395 23.225 11.4395 24.75 8.97698 24.75C6.51448 24.75 4.50195 23.2125 4.50195 21.075V17.6375C4.50195 15.4875 6.50198 13.75 8.97698 13.75C10.2145 13.75 11.327 14.1875 12.1395 14.8875C12.9395 15.5875 13.4395 16.5625 13.4395 17.6375Z" stroke="white" stroke-width="1.5" stroke-linecap="round" stroke-linejoin="round"/>
<path d="M27.5 13.7124V16.2875C27.5 16.975 26.95 17.5374 26.25 17.5624H23.7999C22.4499 17.5624 21.2125 16.5749 21.1 15.2249C21.025 14.4374 21.3249 13.6999 21.8499 13.1874C22.3124 12.7124 22.95 12.4374 23.65 12.4374H26.25C26.95 12.4624 27.5 13.0249 27.5 13.7124Z" stroke="white" stroke-width="1.5" stroke-linecap="round" stroke-linejoin="round"/>
<path d="M2.5 13.125V10.625C2.5 7.225 4.55 4.85 7.7375 4.45C8.0625 4.4 8.4 4.375 8.75 4.375H20C20.325 4.375 20.6375 4.38749 20.9375 4.43749C24.1625 4.81249 26.25 7.2 26.25 10.625V12.4375H23.65C22.95 12.4375 22.3125 12.7125 21.85 13.1875C21.325 13.7 21.025 14.4375 21.1 15.225C21.2125 16.575 22.45 17.5625 23.8 17.5625H26.25V19.375C26.25 23.125 23.75 25.625 20 25.625H16.875" stroke="white" stroke-width="1.5" stroke-linecap="round" stroke-linejoin="round"/>
</svg>
